# Thin rectangular UV label board for vertical tray signage.
# Front face is y=-0.001 and points toward -Y, matching the demo camera side.
v -0.116 -0.001 -0.028
v 0.116 -0.001 -0.028
v 0.116 -0.001 0.028
v -0.116 -0.001 0.028
v -0.116 0.001 -0.028
v 0.116 0.001 -0.028
v 0.116 0.001 0.028
v -0.116 0.001 0.028
vt 0 0
vt 1 0
vt 1 1
vt 0 1
vn 0 -1 0
vn 0 1 0
vn 0 0 1
vn 0 0 -1
vn -1 0 0
vn 1 0 0
f 1/1/1 2/2/1 3/3/1
f 1/1/1 3/3/1 4/4/1
f 5/1/2 7/3/2 6/2/2
f 5/1/2 8/4/2 7/3/2
f 4/1/3 3/2/3 7/3/3
f 4/1/3 7/3/3 8/4/3
f 1/1/4 6/3/4 2/2/4
f 1/1/4 5/4/4 6/3/4
f 1/1/5 4/2/5 8/3/5
f 1/1/5 8/3/5 5/4/5
f 2/1/6 6/2/6 7/3/6
f 2/1/6 7/3/6 3/4/6
